<svg xmlns="http://www.w3.org/2000/svg" viewBox="0 0 83.63 79.89"><defs><style>.cls-1{fill:#037fc9;}.cls-2{fill:#fec007;}</style></defs><title>Asset 2</title><g id="Layer_2" data-name="Layer 2"><g id="Objects"><path class="cls-1" d="M32.7,49.05c7.14-14.35,6.9-20.67,20.19-25.38C49.81,34.54,40.65,39.32,32.7,49.05Z"/><path class="cls-1" d="M51.27,30.81c3-6.65,4-7,4.06-7.62C71.3,18.65,72.11,15.65,80.62,0,76.41,22.62,72,20.84,51.27,30.81Z"/><path class="cls-1" d="M55.64,44.64C40.93,51.7,41.26,61.9,30.44,79.89,47.66,62.46,46.56,62.79,48.32,59.7S57.76,55.29,55.64,44.64Z"/><path class="cls-2" d="M2.13,9.78c-5.95,7.29,1.59,14.63,10,18.64s12.27,7.68,22.32,19C20.89,30.23,22.9,27.44,20.09,17.9S8.08,2.5,2.13,9.78ZM16,12.86c3.06,3.34,6,11.81,2.85,14.56-2.77,2.45-11-1.26-15.17-6.65S2,11.74,4.81,9.5,12.18,8.67,16,12.86Z"/><path class="cls-1" d="M57.06,44.49C68.8,38.66,72.14,54.6,83.63,53.92,71.11,59.23,67.86,48.69,57,51.43A26.49,26.49,0,0,0,57.06,44.49Z"/><path class="cls-1" d="M54.23,16a6,6,0,1,1-6-6A6,6,0,0,1,54.23,16Z"/></g></g></svg>