<svg xmlns="http://www.w3.org/2000/svg" viewBox="0 0 42.02 127.38"><defs><style>.cls-1{fill:#037fc9;}.cls-2{fill:#fec928;}</style></defs><title>Asset 3</title><g id="Layer_2" data-name="Layer 2"><g id="Objects"><path class="cls-1" d="M0,127.38C41.27,78.05,43.89,55.91,19.33,39c-3.43,9.26.2,13.08,4.22,22.54S23.55,96,0,127.38Z"/><path class="cls-1" d="M19.67,37.55c.47-4.87.92-11.57-16.17-26.48,14.14,9.82,20.81,14.59,21,29.91C21.79,38.86,20.75,38.35,19.67,37.55Z"/><path class="cls-1" d="M17,48.8c-1.92,6-11.55,16.64,5.37,27-7.13-6.81-8-13.25-3.58-21.2C17.91,52.15,17.12,50.87,17,48.8Z"/><circle class="cls-2" cx="14.55" cy="6.28" r="6.28"/><path class="cls-1" d="M17.54,39a4.81,4.81,0,1,1-4.81-4.81A4.81,4.81,0,0,1,17.54,39Z"/><path class="cls-1" d="M34.61,75.65c3.1,11.32-.67,33.4,7.41,47.55-10-8.49-11.31-37.71-11.31-37.71C31.78,83.47,34.21,77.94,34.61,75.65Z"/></g></g></svg>