<svg xmlns="http://www.w3.org/2000/svg" viewBox="0 0 78.69 86.38"><defs><style>.cls-1{fill:#037fc9;}.cls-2{fill:#333;}.cls-3{fill:#fec928;}</style></defs><title>Asset 9</title><g id="Layer_2" data-name="Layer 2"><g id="Objects"><path class="cls-1" d="M72.46,25C62.94,9.58,54.25,7.81,46.27,15.07s-8.93,12.06-13.94,8.14-4-5.13-13.14-2.65c6.25,1.28,4.92.78,13.75,8.59,6.61,5.56,11.89-5.25,16-8.22S61.46,30.83,72.46,25Z"/><path class="cls-2" d="M55.31,24.21c8.33,6.2,11.8,5.53,18.51,2.86.25.33,2.47,5.29,2,8.25C68.56,34.43,65.71,38.14,55.31,24.21Z"/><path class="cls-1" d="M77.42,36.89c-1.71-.18-4.24,2.14-18.09.51S40,35.52,40.51,47.09,41.9,76.85,41.9,76.85s5.4-16.51,5.3-23.68,2-7.17,13.51-4.9S82.33,50.25,77.42,36.89Z"/><path class="cls-2" d="M70.46,51.19c-7.27,5.4-15.24,7.63-16.76,11.5s-1,23.69-1,23.69-7.06-26.39-2.14-32,5.51-5.89,5.51-5.89C59.88,49.41,67.83,51.28,70.46,51.19Z"/><path class="cls-1" d="M49.39,8.22A5.39,5.39,0,1,1,47.62.8,5.39,5.39,0,0,1,49.39,8.22Z"/><polygon class="cls-3" points="31.75 32.37 4 32.37 4 0 0 0 0 32.37 0 35.32 0 36.58 31.75 36.58 31.75 86.38 35.88 86.38 35.88 36.58 35.88 32.37 31.75 32.37"/><rect class="cls-3" x="7.1" y="30.06" width="23.25" height="1.31"/></g></g></svg>