<svg xmlns="http://www.w3.org/2000/svg" xmlns:xlink="http://www.w3.org/1999/xlink" viewBox="0 0 218.62 84.33"><defs><style>.cls-1{fill:#fff;}.cls-2{fill:url(#linear-gradient);}.cls-3{fill:url(#linear-gradient-2);}</style><linearGradient id="linear-gradient" x1="1.84" y1="2.29" x2="11.3" y2="18.68" gradientUnits="userSpaceOnUse"><stop offset="0" stop-color="#fff53f"/><stop offset="1" stop-color="#bf1500"/></linearGradient><linearGradient id="linear-gradient-2" x1="7.96" y1="29.4" x2="7.96" y2="8.39" gradientUnits="userSpaceOnUse"><stop offset="0" stop-color="#fff"/><stop offset="0.09" stop-color="#fdf9f9"/><stop offset="0.22" stop-color="#f9eae8"/><stop offset="0.36" stop-color="#f2d0cc"/><stop offset="0.52" stop-color="#e8aca5"/><stop offset="0.69" stop-color="#dc7e72"/><stop offset="0.86" stop-color="#cd4636"/><stop offset="1" stop-color="#bf1500"/></linearGradient></defs><title>Asset 1</title><g id="Layer_2" data-name="Layer 2"><g id="Layer_1-2" data-name="Layer 1"><path class="cls-1" d="M57.57,72.38h-8V52.45a4,4,0,0,0-1.18-2.84,4,4,0,0,0-2.84-1.17,3.82,3.82,0,0,0-1.54.31A3.91,3.91,0,0,0,42,50.9a3.9,3.9,0,0,0-.31,1.55V72.38h-8V52.45a4,4,0,0,0-4-4,3.89,3.89,0,0,0-2.8,1.17A4,4,0,0,0,26,50.9a3.9,3.9,0,0,0-.31,1.55V72.38h-8V41h1.94l2.16,2.4a13,13,0,0,1,3.68-2.18,11.44,11.44,0,0,1,4.18-.78,11.84,11.84,0,0,1,4.29.82,8.76,8.76,0,0,1,3.67,2.84,8.42,8.42,0,0,1,1.67-1.7,10.35,10.35,0,0,1,2-1.14,9.93,9.93,0,0,1,2.16-.63,13.69,13.69,0,0,1,2.19-.19,11.68,11.68,0,0,1,4.68.94,12,12,0,0,1,6.37,6.39,11.85,11.85,0,0,1,.93,4.68Z"/><path class="cls-1" d="M71.46,84.33h-8V41h1.93l3.19,3.78a20.91,20.91,0,0,1,2.38-1.94,18,18,0,0,1,2.68-1.56,15.47,15.47,0,0,1,2.88-1,11.91,11.91,0,0,1,3-.38A16.32,16.32,0,0,1,85.71,41a15.2,15.2,0,0,1,5.1,3.36,15.56,15.56,0,0,1,3.44,5.23,17.65,17.65,0,0,1,1.26,6.78,18.29,18.29,0,0,1-1.26,7,15.31,15.31,0,0,1-3.44,5.24,14.9,14.9,0,0,1-5.1,3.3,16.89,16.89,0,0,1-6.22,1.14,9.4,9.4,0,0,1-2.1-.24,13.05,13.05,0,0,1-2-.63c-.67-.26-1.33-.56-2-.89s-1.28-.67-1.89-1Zm16-27.92a9.64,9.64,0,0,0-.63-3.58,8,8,0,0,0-1.72-2.68,7.36,7.36,0,0,0-2.55-1.68,8.26,8.26,0,0,0-3.1-.59,8.17,8.17,0,0,0-3.09.59,7.51,7.51,0,0,0-2.54,1.68,8.1,8.1,0,0,0-1.71,2.68,9.64,9.64,0,0,0-.63,3.58,9.29,9.29,0,0,0,.63,3.48,8.09,8.09,0,0,0,1.71,2.7,7.77,7.77,0,0,0,5.63,2.34,7.9,7.9,0,0,0,3.1-.61,7.63,7.63,0,0,0,2.55-1.73,8,8,0,0,0,1.72-2.7A9.29,9.29,0,0,0,87.49,56.41Z"/><path class="cls-1" d="M112.42,64.7a4.36,4.36,0,0,0,.94.19c.31,0,.62,0,.93,0a7.72,7.72,0,0,0,2.26-.32,8.14,8.14,0,0,0,2-.92,7.39,7.39,0,0,0,1.69-1.47,7.48,7.48,0,0,0,1.22-1.91l5.86,5.88A15.8,15.8,0,0,1,124.8,69a16.09,16.09,0,0,1-3.14,2.13,15.75,15.75,0,0,1-3.54,1.34,16.25,16.25,0,0,1-3.83.45,15.83,15.83,0,0,1-6.22-1.23A15.64,15.64,0,0,1,103,68.3a16,16,0,0,1-3.44-5.23,17.18,17.18,0,0,1-1.26-6.66,17.78,17.78,0,0,1,1.26-6.8A15.66,15.66,0,0,1,103,44.37a15.48,15.48,0,0,1,5.1-3.37,16.18,16.18,0,0,1,6.22-1.2,15.41,15.41,0,0,1,3.84.47,16.21,16.21,0,0,1,3.56,1.34,16.62,16.62,0,0,1,3.15,2.16,15.84,15.84,0,0,1,2.58,2.85Zm4.1-16.49a4.53,4.53,0,0,0-1.1-.27,10.28,10.28,0,0,0-1.13-.06,8,8,0,0,0-3.09.6,7.53,7.53,0,0,0-2.52,1.72A8,8,0,0,0,107,52.88a9.57,9.57,0,0,0-.62,3.53c0,.29,0,.62.05,1s.08.75.14,1.13.15.75.25,1.1a4.5,4.5,0,0,0,.38.94Z"/><path class="cls-1" d="M147.16,72.38a13.6,13.6,0,0,1-5.44-1.1,14.34,14.34,0,0,1-4.47-3,14.17,14.17,0,0,1-3-4.47,13.64,13.64,0,0,1-1.1-5.45V49h-3.89v-8h3.89V28.52h8V41.06h12.13v8H141.1v9.31a6,6,0,0,0,1.76,4.28,6.13,6.13,0,0,0,1.93,1.3,5.75,5.75,0,0,0,2.37.49h6.07v8Z"/><path class="cls-1" d="M180.77,68.71a21.18,21.18,0,0,1-2.07,1.66,15.21,15.21,0,0,1-2.3,1.35,13.79,13.79,0,0,1-2.47.9,9.92,9.92,0,0,1-2.6.34,14.46,14.46,0,0,1-5.44-1A13.57,13.57,0,0,1,161.42,69a13.39,13.39,0,0,1-3-4.6,16.1,16.1,0,0,1-1.1-6.08V41h8V58.34a7.81,7.81,0,0,0,.48,2.83,6.2,6.2,0,0,0,1.31,2.09A5.25,5.25,0,0,0,169,64.55a6.1,6.1,0,0,0,2.35.44,5,5,0,0,0,2.33-.57,6.27,6.27,0,0,0,1.92-1.51,7.05,7.05,0,0,0,1.29-2.12,6.67,6.67,0,0,0,.47-2.45V41h8V72.38h-1.93Z"/><path class="cls-1" d="M208.66,72.38H190.38v-8h18.28a1.94,1.94,0,0,0,1.41-.59,1.92,1.92,0,0,0,.58-1.41,1.09,1.09,0,0,0-.58-1.11,3.55,3.55,0,0,0-1.41-.26h-8.32a9.78,9.78,0,0,1-3.9-.79,10.11,10.11,0,0,1-5.29-5.34,10.24,10.24,0,0,1,0-7.79,9.89,9.89,0,0,1,9.19-6.06h16.2v8h-16.2a2,2,0,0,0-2,2,2,2,0,0,0,.58,1.45,1.9,1.9,0,0,0,1.41.6h8.32a10.8,10.8,0,0,1,3.87.69,9.81,9.81,0,0,1,3.16,1.92,9,9,0,0,1,2.14,3,8.91,8.91,0,0,1,.79,3.77,9.53,9.53,0,0,1-.79,3.89,10.44,10.44,0,0,1-2.14,3.16,9.87,9.87,0,0,1-3.16,2.14A9.7,9.7,0,0,1,208.66,72.38Z"/><path class="cls-2" d="M6.63,19.72c-.4-4.07,3-5.14,1.33-8.52,4,3.09.66,9,.66,9a8.16,8.16,0,0,0,4-6.4C12.77,9.54,7.9,6.88,6,5.59S5.79,0,5.79,0,3.35,2.75,3.32,5.72A10.1,10.1,0,0,0,5,12C6.2,14,5.79,16.18,6.63,19.72Z"/><path class="cls-3" d="M3.33,29.4h9.26l3.32-6.74H12.15l.1-.07.47-.37c.16-.13.34-.26.5-.4.33-.27.66-.58,1-.89l.12-.12.12-.12,0-.06.22-.25c0-.06.16-.21.25-.35a4.78,4.78,0,0,0,.26-.42,4.07,4.07,0,0,0,.31-.82A3.38,3.38,0,0,0,15.7,18a4.83,4.83,0,0,0-.14-1.46,5.58,5.58,0,0,0-.42-1.12A11,11,0,0,0,14.28,14c-.1-.17-.21-.3-.25-.4l-.1-.15,0,.17a3.54,3.54,0,0,0-.11.48c0,.21-.06.47-.08.75s0,.58,0,.91,0,.65-.08,1a4.19,4.19,0,0,1-.19.91,3.41,3.41,0,0,1-.37.74l-.1.12a.67.67,0,0,1-.14.17l-.22.24,0,0h0l0,0-.11.11c-.31.3-.61.6-.91.92s-.59.64-.86,1A10.17,10.17,0,0,0,9.86,22c-.14.24-.25.46-.36.69H7.28a30,30,0,0,0-1.83-2.46c-.36-.45-.72-.9-1.07-1.36a14.21,14.21,0,0,1-.95-1.38,5.28,5.28,0,0,1-.61-1.34,6.81,6.81,0,0,1-.15-.71c0-.24,0-.5-.06-.75a25,25,0,0,1,.14-3,7.94,7.94,0,0,0,0-2.43,1.55,1.55,0,0,0-.32-.66.83.83,0,0,0-.19-.15.65.65,0,0,1,.05.23,1.36,1.36,0,0,1-.07.59,20.92,20.92,0,0,1-.89,2,11.82,11.82,0,0,0-1,3.3A6.82,6.82,0,0,0,.33,16.7a5.94,5.94,0,0,0,.33,1.12l.12.27.12.24c.06.13.17.31.26.48a10.85,10.85,0,0,0,1.25,1.67,15.63,15.63,0,0,0,1.35,1.35c.34.31.67.57,1,.84H0ZM12.5,18.93h0Z"/><path class="cls-1" d="M.78,33.65H3.33L6.06,67.39a2.7,2.7,0,0,0-1.8,2.4c0,1,3.48,3.37,3.48,3.37s3.53-2.62,3.57-3.52a2.56,2.56,0,0,0-1.59-2.12c.3-3.86,2.75-29.09,3.21-33.86h1.86l.05-3.13H.83Z"/></g></g></svg>