<svg xmlns="http://www.w3.org/2000/svg" viewBox="0 0 93.81 82.91"><defs><style>.cls-1{fill:#037fc9;}.cls-2{fill:#fec928;}</style></defs><title>Asset 5</title><g id="Layer_2" data-name="Layer 2"><g id="Objects"><path class="cls-1" d="M68.76,7.43c5.37,4.35,4.59,19.68,7.55,20.07s13.22-3.66,17.5-7.7C87.74,28.59,75.92,35.51,71.72,33S71.72,13.73,68.76,7.43Z"/><path class="cls-1" d="M67.36,18.79C62.69,11.08,56,5.25,53.82,4.55s-13,5.37-17,11.44C41.45,5.09,50.71-1.83,55.77.43a82,82,0,0,1,11,5.75C67,10.07,68.14,11.71,67.36,18.79Z"/><path class="cls-1" d="M41.55,23.55C42.9,29.33,60.48,37.08,68.1,43.47s-8.6,20.16-28,32.08c14.26-13.27,29.51-23,11.31-30.24S26.43,31.54,41.55,23.55Z"/><path class="cls-1" d="M31.35,33c-1.36,5.53-7,15.36-14.14,20S6.39,65.23,0,80.35c12.05-18.57,23.36-18.94,27.9-25S40.18,41.18,40.18,41.18A15.09,15.09,0,0,1,31.35,33Z"/><circle class="cls-1" cx="79.51" cy="9.92" r="5.42"/><path class="cls-2" d="M60.45,76.16a6.75,6.75,0,1,1-6.75-6.75A6.75,6.75,0,0,1,60.45,76.16Z"/></g></g></svg>