<?xml version="1.0" encoding="utf-8"?>
<!-- Generator: Adobe Illustrator 22.1.0, SVG Export Plug-In . SVG Version: 6.00 Build 0)  -->
<svg version="1.1" id="Layer_1" xmlns="http://www.w3.org/2000/svg" xmlns:xlink="http://www.w3.org/1999/xlink" x="0px" y="0px"
	 viewBox="0 0 54.5 82.2" style="enable-background:new 0 0 54.5 82.2;" xml:space="preserve">
<style type="text/css">
	.st0{fill:#037FC9;}
	.st1{fill:#231F20;}
	.st2{fill:#FEC007;}
	.st3{fill:#E4A035;}
</style>
<title>Asset 7</title>
<g id="Layer_2_1_">
	<g id="Objects">
		<path class="st0" d="M41.5,4.9c0,2.7-2.2,4.9-4.9,4.9s-4.9-2.2-4.9-4.9S33.8,0,36.5,0l0,0C39.2,0,41.5,2.2,41.5,4.9z"/>
		<path class="st1" d="M29.5,24.8c-3.7,0.7-7.9-0.4-16-3.4C31,31.3,32.4,29.9,38,26.9c3.4-1.8,7.4-4.2,9.7-6.9
			C40,23.5,33.8,25.6,29.5,24.8z"/>
		<path class="st0" d="M47.8,11.6c-8.2-5.2-23.6,16-25.3-3.7c-0.8,10.7,1.6,15.3,6.6,16.2c4.3,0.7,10.5-1.4,18.3-4.8
			c1.3-0.6,2.6-1.2,4-1.8c-0.8-2.9-2-4.7-3.4-5.7"/>
		<path class="st0" d="M53.4,31.3C60,41.8,34,49,51.9,82.2c-13.5-15.1-14-25.5-13.3-32.6C39.2,43.8,40.3,33.4,53.4,31.3z"/>
		<path class="st0" d="M41.6,36.7c2.3-6.4,9.2-12.2,9.7-17.4c2,7,1.2,8.6,1.7,10.7C51,29.9,44.7,31.9,41.6,36.7z"/>
		<path class="st0" d="M50.5,19.6c-1.1,3.9-8.2,8.2-9.9,13C40.5,27.9,48.5,22.2,50.5,19.6z"/>
		<path class="st0" d="M39.3,27.9c1.5-5.3,6.2-5.2,8.5-7.6C44,26.2,41.1,25.6,39.3,27.9z"/>
		<path class="st2" d="M20.1,25.6l-8.8-6.5c-0.3-0.2-1.7-1-1.4-1.3l0.4-0.6c0.2-0.3,1.4,0.6,1.7,0.8l9.3,5.9
			c0.3,0.2,0.4,0.6,0.2,0.9l-0.4,0.6C20.8,25.7,20.4,25.8,20.1,25.6z"/>
		<ellipse transform="matrix(0.6355 -0.7721 0.7721 0.6355 -9.0278 10.1336)" class="st2" cx="6.2" cy="14.6" rx="5.8" ry="6.5"/>
		<ellipse transform="matrix(0.6355 -0.7721 0.7721 0.6355 -9.0278 10.1336)" class="st3" cx="6.2" cy="14.6" rx="5" ry="5.5"/>
	</g>
</g>
</svg>
