<svg xmlns="http://www.w3.org/2000/svg" viewBox="0 0 65.66 70.87"><defs><style>.cls-1{fill:#037fc9;}.cls-2{fill:#fec007;}</style></defs><title>Asset 6</title><g id="Layer_2" data-name="Layer 2"><g id="Objects"><path class="cls-1" d="M13.19,8.81c-6.54,1-6.81,13.29-6.13,20.66s.62,9,20.18,15.14C15.74,38.14,13.33,35.94,12.5,28.5S16.22,16.94,13.19,8.81Z"/><path class="cls-1" d="M30,12.77c-1.85,1.67-2.4,9.18-2.16,18.12s2.65,8.5,8.08,9.43c-4-1.54-3.39-8.44-2.65-12.94S35.78,18.32,30,12.77Z"/><path class="cls-2" d="M63.42,20.1c-6.14-7.12-14.68-1-20.08,6.57s-9.7,10.75-22.6,18.67C40,35,42.42,37.48,52.3,36.37S69.56,27.22,63.42,20.1ZM58,33.25c-3.82,2.43-12.67,3.87-14.83.28-1.94-3.16,3.15-10.63,9.19-13.78s9.18-.11,10.9,3S62.77,30.19,58,33.25Z"/><path class="cls-1" d="M2.06,27.93c-4.5,8.92-.7,13.73,2.58,20.73C9.22,58.4,6.86,64.89,3.32,70.87c9.88-10.7,12.61-13.06,10.4-29.81C9.74,38.77,3.54,37.67,2.06,27.93Z"/><path class="cls-1" d="M23.53,45.56c14,6.35,19.71,10.18,24.21,24.13C45.45,52,42.28,47,33,40.91,29.73,41.8,26.93,45,23.53,45.56Z"/><path class="cls-1" d="M27.88,5.67A5.67,5.67,0,1,1,22.21,0,5.67,5.67,0,0,1,27.88,5.67Z"/></g></g></svg>