<svg xmlns="http://www.w3.org/2000/svg" viewBox="0 0 76.88 79.39"><defs><style>.cls-1{fill:#037fc9;}.cls-2{fill:#fec928;}</style></defs><title>Asset 4</title><g id="Layer_2" data-name="Layer 2"><g id="Objects"><path class="cls-1" d="M10.31,43.88C25.87,30,68.58,14.26,42.15,13.9c-16.74-.22-16.51,11.74-24.6,19.84,8.59-7.4,12.08-15,18.82-14.06C40.15,20.19,21.06,30,10.31,43.88Z"/><path class="cls-1" d="M47.46,6.47A6.47,6.47,0,1,1,41,0,6.47,6.47,0,0,1,47.46,6.47Z"/><circle class="cls-2" cx="8.48" cy="17.37" r="8.48" transform="translate(-6 4.57) rotate(-22.5)"/><path class="cls-1" d="M21.7,76.88C10.72,59.71.87,48.72,40.39,42.54c19.43-2.59,2.22,27,36.49,36.85C34.94,71.72,48.71,50.28,34.31,52.94,24.56,54.74,13,57.46,21.7,76.88Z"/></g></g></svg>